<svg width="180" height="240" viewBox="30 0 140 240" xmlns="http://www.w3.org/2000/svg">
  <ellipse cx="100" cy="130" rx="70" ry="100" fill="#f9ca24" stroke="#000" stroke-width="2"/>
  <path d="M30,110 Q100,70 170,110" fill="none" stroke="#ff7979" stroke-width="4"/>
  <path d="M30,100 Q100,60 170,100" fill="none" stroke="#6ab04c" stroke-width="4"/>
  <circle cx="50" cy="90" r="8" fill="#ff6b81" stroke="#000" stroke-width="2"/>
  <circle cx="150" cy="90" r="8" fill="#6ab04c" stroke="#000" stroke-width="2"/>
  <circle cx="100" cy="80" r="5" fill="#ff7979" stroke="#000" stroke-width="2"/>
  <circle cx="75" cy="70" r="6" fill="#6ab04c" stroke="#000" stroke-width="2"/>
  <circle cx="125" cy="70" r="6" fill="#ff6b81" stroke="#000" stroke-width="2"/>
  <path d="M30,120 Q100,100 170,120" fill="none" stroke="#ff7979" stroke-width="4"/>
  <path d="M30,150 Q100,130 170,150" fill="none" stroke="#6ab04c" stroke-width="4"/>
  <circle cx="50" cy="170" r="8" fill="#ff6b81" stroke="#000" stroke-width="2"/>
  <circle cx="150" cy="170" r="8" fill="#6ab04c" stroke="#000" stroke-width="2"/>
  <circle cx="100" cy="180" r="5" fill="#ff7979" stroke="#000" stroke-width="2"/>
  <circle cx="75" cy="190" r="6" fill="#6ab04c" stroke="#000" stroke-width="2"/>
  <circle cx="125" cy="190" r="6" fill="#ff6b81" stroke="#000" stroke-width="2"/>
</svg>