<svg width="48" height="64" viewBox="0 0 48 64" xmlns="http://www.w3.org/2000/svg">
  <g transform="scale(1, 1.05)">
  <circle fill="#fda" cx="25" cy="22" r="12" />
  <ellipse fill="#000" cx="20" rx="2.5" ry="1.9" cy="18" />
  <ellipse fill="#000" cx="30" rx="2.5" ry="1.9" cy="18" />
  <ellipse fill="#f0f0f0" cx="20" cy="18" ry=".8" rx="1" />
  <ellipse fill="#f0f0f0" cx="30" cy="18" ry=".8" rx="1" />
  <polygon fill="#ffc876" points="22 26 25 21 28 26" />
  <path d="M20 28C20 28 25 33 30 28" fill="#e26262" />
  <polygon points="12 14 20.5 5 30.5 5 38 14" fill="#000" />
  <rect width="10" height="8" fill="#fda" ry="2" rx="2.8" x="21" y="30" />
  <rect width="12" height="16" rx="2" x="20" y="33" fill="#00f" />
  <rect width="5" rx="3" height="20" stroke="transparent" x="32" y="35" fill="#fda" transform="rotate(315, 34.5, 41)" />
  <rect width="5" rx="3" height="20" stroke="transparent" x="15" y="35" fill="#fda" transform="rotate(45, 17.5, 41)" />
  <rect width="6" rx="3" height="10" stroke="transparent" x="31.5" y="34" fill="#00f" transform="rotate(315, 34.5, 41)" />
  <rect width="6" rx="3" height="10" stroke="transparent" x="14.5" y="34" fill="#00f" transform="rotate(45, 17.5, 41)" />
  <rect width="4" height="15" fill="#00f" x="20" y="45" rx="3" />
  <rect width="4" height="15" fill="#00f" x="28" y="45" rx="3" />
  <rect width="12" height="4" x="12" fill="#472000" y="57" rx="2" />
  <rect width="12" height="4" fill="#472000" y="57" x="28" rx="2" />
  </g>
</svg>